<svg width="34.517" height="30.6" viewBox="0 0 353.459 313.347"><path d="M226.658 148.677l-110.321-92.81c-3.615-3.04-9.467-3.035-13.076.015-3.605 3.05-3.596 7.989.02 11.03L207.034 154.2l-103.759 87.286c-3.614 3.041-3.624 7.978-.018 11.027 1.809 1.53 4.178 2.294 6.548 2.294 2.364 0 4.724-.76 6.53-2.278l110.322-92.808c1.74-1.461 2.718-3.45 2.718-5.521 0-2.072-.98-4.059-2.718-5.522z" fill="#fff" data-original="#000000"/><path d="M239.46 301.153H14.692V17.188h223.32s240.72 143.388 1.45 283.965z" fill="none" stroke="#99c1ff" stroke-width="19.006"/></svg>