<?xml version="1.0" encoding="UTF-8" standalone="no"?><svg viewBox="0 0 117 91" xmlns="http://www.w3.org/2000/svg" xmlns:xlink="http://www.w3.org/1999/xlink"><style>:root>svg{display:none}:root>svg:target{display:block}</style><svg width="20" height="20" x="0" y="0" viewBox="0 0 512.002 512.002" version="1.1" id="arrow" xmlns="http://www.w3.org/2000/svg"><path d="M388.425 241.951L151.609 5.79c-7.759-7.733-20.321-7.72-28.067.04-7.74 7.759-7.72 20.328.04 28.067l222.72 222.105-222.728 222.104c-7.759 7.74-7.779 20.301-.04 28.061a19.8 19.8 0 0014.057 5.835 19.79 19.79 0 0014.017-5.795l236.817-236.155c3.737-3.718 5.834-8.778 5.834-14.05s-2.103-10.326-5.834-14.051z" data-original="#000000" id="path2"/></svg><svg width="34.517" height="30.6" viewBox="0 0 353.459 313.347" id="arrow-slider"><path d="M226.658 148.677l-110.321-92.81c-3.615-3.04-9.467-3.035-13.076.015-3.605 3.05-3.596 7.989.02 11.03L207.034 154.2l-103.759 87.286c-3.614 3.041-3.624 7.978-.018 11.027 1.809 1.53 4.178 2.294 6.548 2.294 2.364 0 4.724-.76 6.53-2.278l110.322-92.808c1.74-1.461 2.718-3.45 2.718-5.521 0-2.072-.98-4.059-2.718-5.522z" fill="#fff" data-original="#000000" id="path2" stroke-width=".428"/><path d="M239.46 301.153H14.692V17.188h223.32s240.72 143.388 1.45 283.965z" id="path4" fill="none" stroke="#99c1ff" stroke-width="19.006" stroke-linecap="butt" stroke-linejoin="miter" stroke-miterlimit="4" stroke-dasharray="none" stroke-opacity="1"/></svg><svg viewBox="0 0 512 512" width="50" height="50" id="home"><path d="M442.246 232.543c-7.346 0-13.303 5.956-13.303 13.303v211.749H322.521V342.009c0-36.68-29.842-66.52-66.52-66.52s-66.52 29.842-66.52 66.52v115.587H83.058V245.847c0-7.347-5.957-13.303-13.303-13.303-7.346 0-13.303 5.956-13.303 13.303V470.9c0 7.347 5.957 13.303 13.303 13.303h133.029c6.996 0 12.721-5.405 13.251-12.267.032-.311.052-.651.052-1.036V342.01c0-22.009 17.905-39.914 39.914-39.914s39.914 17.906 39.914 39.914V470.9c0 .383.02.717.052 1.024.524 6.867 6.251 12.279 13.251 12.279h133.029c7.347 0 13.303-5.956 13.303-13.303V245.847c-.001-7.348-5.957-13.304-13.304-13.304z"/><path d="M506.555 208.064L263.859 30.367a13.3 13.3 0 00-15.716 0L5.445 208.064c-5.928 4.341-7.216 12.665-2.875 18.593 4.341 5.928 12.666 7.214 18.593 2.875L256 57.588l234.837 171.943a13.236 13.236 0 007.848 2.57c4.096 0 8.138-1.885 10.744-5.445 4.342-5.927 3.054-14.251-2.874-18.592z"/></svg><svg width="40" height="40" viewBox="0 0 490.8 490.8" id="main-arrow"><path d="M231.696 3.128c-4.237-4.093-10.99-3.975-15.083.262-3.992 4.134-3.992 10.687 0 14.82l227.115 227.136-227.136 227.115c-4.237 4.093-4.355 10.845-.262 15.083 4.093 4.237 10.845 4.354 15.083.262.089-.086.176-.173.262-.262l234.667-234.667c4.164-4.165 4.164-10.917 0-15.083L231.696 3.128z"/><path d="M274.363 237.795L39.696 3.128a10.668 10.668 0 00-15.083 15.083l227.115 227.136L24.592 472.461c-4.237 4.093-4.354 10.845-.262 15.083 4.093 4.237 10.845 4.354 15.083.262.089-.086.176-.173.262-.262l234.667-234.667c4.169-4.159 4.179-10.911.021-15.082z"/><g><path d="M224.144 490.68a10.667 10.667 0 01-7.552-18.219l227.136-227.115L216.592 18.232c-4.093-4.237-3.975-10.99.262-15.083 4.134-3.992 10.687-3.992 14.82 0l234.667 234.667c4.164 4.165 4.164 10.917 0 15.083L231.675 487.565a10.66 10.66 0 01-7.531 3.115z"/><path d="M32.144 490.68a10.667 10.667 0 01-7.552-18.219l227.136-227.115L24.592 18.232c-4.171-4.171-4.171-10.933 0-15.104s10.933-4.171 15.104 0l234.667 234.667c4.164 4.165 4.164 10.917 0 15.083L39.696 487.544a10.665 10.665 0 01-7.552 3.136z"/></g></svg><svg width="30" height="30" viewBox="0 0 184.58 184.58" id="triangle"><path d="M182.004 146.234L108.745 19.345c-3.435-5.949-9.586-9.5-16.455-9.5s-13.021 3.551-16.455 9.5L2.576 146.234c-3.435 5.948-3.435 13.051 0 19s9.586 9.5 16.455 9.5h146.518c6.869 0 13.021-3.552 16.455-9.5 3.434-5.949 3.434-13.052 0-19zm-12.124 12c-.435.751-1.725 2.5-4.331 2.5H19.031c-2.606 0-3.896-1.749-4.331-2.5-.434-.752-1.302-2.744.001-5L87.96 26.345c1.303-2.256 3.462-2.5 4.33-2.5s3.027.244 4.33 2.5l73.259 126.889c1.302 2.256.434 4.248.001 5z" data-original="#000000"/></svg><svg width="20" height="20" x="0" y="0" viewBox="0 0 184.58 184.58" version="1.1" id="triangle-small" xmlns="http://www.w3.org/2000/svg"><path d="M182.004 146.234L108.745 19.345c-3.435-5.949-9.586-9.5-16.455-9.5s-13.021 3.551-16.455 9.5L2.576 146.234c-3.435 5.948-3.435 13.051 0 19s9.586 9.5 16.455 9.5h146.518c6.869 0 13.021-3.552 16.455-9.5 3.434-5.949 3.434-13.052 0-19zm-12.124 12c-.435.751-1.725 2.5-4.331 2.5H19.031c-2.606 0-3.896-1.749-4.331-2.5-.434-.752-1.302-2.744.001-5L87.96 26.345c1.303-2.256 3.462-2.5 4.33-2.5s3.027.244 4.33 2.5l73.259 126.889c1.302 2.256.434 4.248.001 5z" data-original="#000000" id="path2"/></svg><svg width="117" height="91" viewBox="0 0 90.914 9.293" version="1.1" id="watch-video" xmlns="http://www.w3.org/2000/svg"><g id="layer1" transform="translate(-55.096 -106.542)"><path id="text1508" clip-path="none" style="line-height:1.25;-inkscape-font-specification:'sans-serif, Normal';font-variant-ligatures:normal;font-variant-caps:normal;font-variant-numeric:normal;font-variant-east-asian:normal;white-space:pre" d="M39.86.365l-2.255.36.618 3.804-1.524.242.305 1.874 1.523-.243 1.145 7.041c.26 1.605.805 2.714 1.635 3.328.83.615 1.927.813 3.295.596a9.59 9.59 0 001.314-.318c.492-.151.942-.314 1.348-.492l-.327-2.004-.12.02a9.003 9.003 0 01-.819.407 4.68 4.68 0 01-1.127.338c-.632.1-1.114.105-1.45.012a1.684 1.684 0 01-.833-.586 2.674 2.674 0 01-.512-1.037 21.76 21.76 0 01-.314-1.629l-.98-6.033 4.654-.738-.305-1.873-4.652.738zM69.91.63l-6.916 17.385 2.125.826 3.707-9.319a10.08 10.08 0 012.252-.376c.746-.038 1.408.057 1.988.283.566.22.996.477 1.288.771.294.287.473.622.537 1.008.068.353.036.797-.098 1.33a12.91 12.91 0 01-.54 1.649l-2.825 7.105 2.125.826 3.222-8.1c.608-1.527.716-2.835.323-3.925-.393-1.09-1.273-1.902-2.637-2.432a5.866 5.866 0 00-2.363-.389c-.83.03-1.685.187-2.565.473l2.502-6.29zM56.06 3.29c-1.67.011-3.081.522-4.232 1.531-1.307 1.154-2.044 2.825-2.213 5.012-.09 1.173-.007 2.211.248 3.113.256.902.656 1.663 1.201 2.282a5.572 5.572 0 001.997 1.45c.794.341 1.679.548 2.656.622a7.66 7.66 0 002.19-.137 14.751 14.751 0 002.234-.674l.19-2.478-.122-.01c-.18.123-.423.27-.729.44-.304.161-.628.314-.972.456a6.226 6.226 0 01-1.32.37 5.764 5.764 0 01-1.418.074c-1.325-.1-2.32-.608-2.989-1.526-.66-.924-.929-2.192-.804-3.804.127-1.66.595-2.89 1.404-3.688.817-.805 1.872-1.16 3.164-1.062.702.053 1.41.25 2.123.593.72.344 1.407.808 2.06 1.395l.122.01.193-2.502a11.975 11.975 0 00-1.998-.946 8.147 8.147 0 00-2.252-.494 8.976 8.976 0 00-.732-.027zM28.399 7.588a5.364 5.364 0 00-1.039.11c-.71.133-1.502.39-2.377.77a14.64 14.64 0 00-2.191 1.19c-.712.467-1.247.844-1.605 1.131l.933 2.1.111-.05a15 15 0 011.817-1.523 9.44 9.44 0 011.736-1.017c.452-.197.899-.357 1.34-.479.441-.122.85-.162 1.22-.123.39.04.734.18 1.034.416.307.234.567.586.775 1.055l.141.318a60.042 60.042 0 00-3.295 1.748c-1.008.578-1.816 1.195-2.426 1.854-.602.655-.979 1.361-1.129 2.117-.146.746-.011 1.583.403 2.514.505 1.135 1.31 1.9 2.414 2.295 1.104.394 2.216.35 3.336-.137.608-.264 1.111-.553 1.511-.867a6.516 6.516 0 001.016-.942c.238-.26.462-.568.676-.923.217-.366.391-.65.521-.856l.582 1.309 2.08-.905-3.707-8.332c-.352-.791-.769-1.4-1.252-1.828a3.602 3.602 0 00-1.65-.844 4.428 4.428 0 00-.975-.101zm2.64 5.568l1.52 3.418a10.042 10.042 0 01-1.236 1.758c-.484.543-1.092.974-1.826 1.293-.882.384-1.617.49-2.203.326-.59-.172-1.04-.609-1.354-1.312-.277-.623-.31-1.19-.095-1.703.21-.52.58-.995 1.105-1.424.442-.359 1.077-.762 1.905-1.21a93.1 93.1 0 012.183-1.146zm-17.288 1.36l-1.635 1.593 5.703 9.028-9.853-4.98-1.34 1.306 4.967 9.746-9.153-5.664-1.693 1.652 12.07 7.069 1.496-1.46-4.88-9.761 9.826 4.937 1.506-1.466zm79.87 5.552l-6.852 12.77 1.48 1.734 13.91-4.5-1.543-1.808L89.674 32l5.545-10.059zm15.456 13.104l-2.103 1.074 1.18 2.262 2.105-1.072zm-4.056 2.232l-12.057 6.15 1.049 2.007 12.056-6.15zm-.315 9.366a9.798 9.798 0 00-2.371.308c-2.144.532-3.707 1.403-4.686 2.611-.976 1.217-1.267 2.6-.873 4.153.203.8.544 1.504 1.024 2.111a8.234 8.234 0 001.785 1.649l-1.379.341.557 2.19 18.33-4.549-.555-2.19-5.703 1.417a8.334 8.334 0 00.25-1.832c.015-.565-.065-1.19-.238-1.874a5.528 5.528 0 00-1.028-2.072 5.598 5.598 0 00-1.834-1.5c-.748-.383-1.6-.626-2.552-.728a7.462 7.462 0 00-.727-.035zm.424 2.289c.656.018 1.243.146 1.762.38 1.037.47 1.712 1.317 2.023 2.543.14.552.218 1.072.234 1.563.017.491-.035 1.064-.152 1.72l-7.55 1.876a8.483 8.483 0 01-1.538-1.514 4.898 4.898 0 01-.89-1.783c-.296-1.165-.107-2.111.568-2.84.683-.73 1.806-1.29 3.37-1.678.792-.197 1.517-.286 2.173-.267zm-.072 15.043c-1.857.013-3.355.531-4.496 1.55-1.297 1.166-2.022 2.858-2.172 5.078-.06.871-.007 1.709.158 2.514.164.805.382 1.597.654 2.377l2.485.166.01-.121c-.33-.415-.649-1.098-.958-2.049a7.419 7.419 0 01-.359-2.78c.047-.686.187-1.31.42-1.872a4.068 4.068 0 01.973-1.416c.425-.405.953-.711 1.584-.918.639-.206 1.373-.282 2.205-.227l-.668 9.86 1.236.082c1.963.13 3.511-.26 4.645-1.172 1.132-.904 1.76-2.258 1.882-4.063.133-1.948-.41-3.565-1.63-4.85-1.22-1.276-2.937-1.987-5.15-2.134-.28-.019-.554-.027-.82-.025zm2.25 2.42c1.06.166 1.924.628 2.595 1.386.67.767.965 1.753.883 2.96-.081 1.197-.468 2.065-1.162 2.605-.695.547-1.64.786-2.836.715zM100.51 78.1a6.213 6.213 0 00-1.9.347c-1.608.575-2.767 1.743-3.475 3.506-.703 1.748-.669 3.376.101 4.885.77 1.508 2.182 2.666 4.237 3.473 2.054.807 3.886.924 5.494.35 1.615-.572 2.774-1.733 3.476-3.481.71-1.763.675-3.4-.103-4.91-.774-1.501-2.188-2.656-4.242-3.463-1.284-.505-2.48-.74-3.588-.707zm-.41 2.26c.9-.059 1.943.145 3.128.61 1.634.642 2.72 1.43 3.258 2.366.544.946.587 1.987.13 3.125-.452 1.123-1.205 1.845-2.257 2.164-1.044.322-2.382.163-4.015-.479-1.596-.626-2.671-1.42-3.227-2.378-.55-.949-.603-1.982-.154-3.098.454-1.13 1.216-1.851 2.283-2.164.269-.078.553-.127.854-.147z" transform="matrix(.78141 0 0 .78141 54.513 75.485)" font-style="normal" font-variant="normal" font-weight="400" font-stretch="normal" font-size="18.754" font-family="sans-serif" stroke-width=".349"/></g></svg><svg width="52" height="37" viewBox="0 0 51.566 36.899" version="1.1" id="watch-video-small" xmlns="http://www.w3.org/2000/svg"><g aria-label="watch video" id="text2221" style="line-height:1.25;-inkscape-font-specification:'Segoe Script, Bold'" transform="translate(-31.887 -41.518)" font-weight="700" font-size="10.583" font-family="Segoe Script" stroke-width=".265"><path d="M36.44 46.482l2.209 4.755-.913.597-1.815-1.407-.414-.36.163.561.57 2.184-.887.58-3.466-3.933.735-.48 2.292 2.712.508.606-.19-.696-.644-2.364.54-.353 1.938 1.48.57.448-.333-.652-1.606-3.192z" style="-inkscape-font-specification:'Consolas, Normal'" id="path16994" font-weight="400" font-size="10.583" font-family="Consolas"/><path d="M43.352 49.252l-.263-.646q-.25.54-.597.869-.341.326-.791.494-.417.156-.752.16-.335.004-.597-.107-.26-.118-.446-.336-.18-.219-.291-.514-.274-.73.114-1.345.391-.621 1.456-1.02l1.007-.376-.16-.426q-.16-.43-.533-.584-.373-.158-.94.054-.41.154-.778.396-.363.24-.725.57l-.284-.76q.138-.119.311-.244.177-.133.378-.258.202-.125.43-.238.226-.117.468-.208.44-.165.83-.2.39-.036.706.072.321.106.564.358.243.25.395.657l1.253 3.35zm-.92-2.177l-1.069.4q-.314.118-.518.266-.204.148-.306.318-.102.17-.113.362-.008.185.068.389.053.14.145.254.09.11.226.175.133.06.31.061.176 0 .399-.083.29-.109.597-.422.311-.32.584-.859z" style="-inkscape-font-specification:'Consolas, Normal'" id="path16996" font-weight="400" font-size="10.583" font-family="Consolas"/><path d="M49.88 47.91q-.291.12-.61.194-.317.08-.65.126-.968.134-1.504-.236-.536-.374-.661-1.28l-.37-2.683-1.439.198-.103-.747 1.439-.198-.195-1.413.86-.353.226 1.643 2.308-.318.103.747-2.308.318.36 2.611q.076.553.406.79.334.23.907.15.246-.033.533-.11.286-.08.592-.206z" style="-inkscape-font-specification:'Consolas, Normal'" id="path16998" font-weight="400" font-size="10.583" font-family="Consolas"/><path d="M55.574 48.081q-.361.105-.737.136-.372.037-.763.005-1.226-.101-1.835-.82-.604-.72-.499-1.997.05-.613.283-1.096.231-.484.606-.811.374-.327.869-.478.495-.156 1.072-.108.402.033.747.118.346.086.654.241l-.07.855q-.32-.203-.665-.309-.338-.11-.709-.141-.345-.029-.665.08-.314.103-.566.331-.253.228-.416.572-.163.345-.2.793-.078.937.337 1.443.42.502 1.229.568.365.03.712-.024.352-.054.685-.192z" style="-inkscape-font-specification:'Consolas, Normal'" id="path17000" font-weight="400" font-size="10.583" font-family="Consolas"/><path d="M61.31 49.84l-.858-.268.984-3.163q.178-.572.049-.92-.123-.353-.523-.477-.173-.054-.341-.052-.162-.002-.362.066-.198.063-.452.2-.254.138-.597.355l-1.023 3.287-.858-.268 2.17-6.972.858.267-.628 2.019-.273.77q.278-.179.521-.282.25-.106.474-.15.23-.042.446-.024.216.019.433.087.74.23 1.004.81.265.575-.018 1.483z" style="-inkscape-font-specification:'Consolas, Normal'" id="path17002" font-weight="400" font-size="10.583" font-family="Consolas"/><path d="M70.942 49.424l.753.693-1.388 3.386-.365.801.79-.439 3.237-1.656.726.669-5.011 2.439-.76-.7z" style="-inkscape-font-specification:'Consolas, Normal'" id="path17004" font-weight="400" font-size="10.583" font-family="Consolas"/><path d="M76.604 56.557l-.878-1.259.61-.425 1.398 2.005-3.642 2.538.884 1.268-.615.428-2.378-3.413.614-.428.975 1.399zm2.575-1.41q.086.123.113.261.032.136.004.268-.024.137-.1.253-.07.118-.193.203-.118.083-.257.11-.135.032-.272.007-.134-.02-.254-.093-.117-.077-.202-.2-.086-.123-.117-.258-.028-.139-.003-.275.027-.133.1-.253.077-.117.196-.2.123-.085.254-.113.139-.028.272-.007.137.024.253.1.12.074.206.197z" style="-inkscape-font-specification:'Consolas, Normal'" id="path17006" font-weight="400" font-size="10.583" font-family="Consolas"/><path d="M77.328 61.345q.613-.25 1.155-.277.546-.028.997.145.457.176.8.539.35.365.567.895.094.23.155.462.064.236.09.477l2.018-.825.342.837-6.76 2.762-.304-.746.897-.4q-.65-.142-1.06-.449-.41-.307-.603-.78-.169-.412-.125-.798.045-.381.27-.719.231-.334.629-.62.397-.285.932-.503zm.4.83q-.87.355-1.197.785-.32.432-.128.9.129.317.554.55.427.24 1.14.4l2.229-.911q.012-.245-.042-.513-.05-.27-.149-.514-.277-.68-.874-.883-.594-.198-1.532.186z" style="-inkscape-font-specification:'Consolas, Normal'" id="path17008" font-weight="400" font-size="10.583" font-family="Consolas"/><path d="M80.713 71.834q-.188.032-.316.048-.129.016-.243.025l-.604-3.593q-.785.132-1.134.642-.344.508-.205 1.334.038.224.09.446.059.22.124.424.066.204.133.387.074.186.147.342l-.729.122q-.162-.344-.3-.793-.143-.442-.226-.931-.11-.658-.011-1.162.098-.504.383-.866.29-.358.755-.588.47-.226 1.092-.33.54-.091 1.045-.019.511.077.922.311.418.24.705.636.287.398.38.948.09.535-.01.976-.098.441-.362.774-.258.337-.677.554-.413.221-.959.313zm-.027-.944q.344-.042.61-.17.272-.13.447-.338.175-.202.244-.476.075-.274.018-.61-.049-.291-.201-.512-.153-.22-.386-.36-.232-.138-.536-.197-.303-.06-.649-.028z" style="-inkscape-font-specification:'Consolas, Normal'" id="path17010" font-weight="400" font-size="10.583" font-family="Consolas"/><path d="M80.335 78.41q-.603-.032-1.1-.23-.491-.196-.836-.535-.339-.339-.516-.809-.172-.47-.14-1.053.029-.557.223-.992.198-.43.55-.72.352-.288.856-.426.504-.134 1.149-.1.604.032 1.09.229.492.196.83.535.345.34.517.809.177.47.146 1.053-.03.557-.229.987-.193.434-.545.721-.347.292-.85.426-.505.139-1.145.105zm.008-.92q.48.025.842-.065.366-.084.614-.268.253-.183.387-.46.138-.272.157-.618.021-.403-.124-.7-.14-.292-.393-.492-.253-.194-.6-.3-.341-.102-.723-.122-.48-.025-.846.059-.367.089-.62.272-.248.184-.387.456-.133.272-.152.623-.021.403.119.695.144.297.398.492.253.2.595.3.346.107.733.127z" style="-inkscape-font-specification:'Consolas, Normal'" id="path17012" font-weight="400" font-size="10.583" font-family="Consolas"/></g></svg></svg>