<svg width="20" height="20" viewBox="0 0 184.58 184.58" xmlns="http://www.w3.org/2000/svg"><path d="M182.004 146.234L108.745 19.345c-3.435-5.949-9.586-9.5-16.455-9.5s-13.021 3.551-16.455 9.5L2.576 146.234c-3.435 5.948-3.435 13.051 0 19s9.586 9.5 16.455 9.5h146.518c6.869 0 13.021-3.552 16.455-9.5 3.434-5.949 3.434-13.052 0-19zm-12.124 12c-.435.751-1.725 2.5-4.331 2.5H19.031c-2.606 0-3.896-1.749-4.331-2.5-.434-.752-1.302-2.744.001-5L87.96 26.345c1.303-2.256 3.462-2.5 4.33-2.5s3.027.244 4.33 2.5l73.259 126.889c1.302 2.256.434 4.248.001 5z" data-original="#000000"/></svg>