<svg width="117" height="91" viewBox="0 0 90.914 9.293" xmlns="http://www.w3.org/2000/svg"><path style="line-height:1.25;-inkscape-font-specification:'sans-serif, Normal';font-variant-ligatures:normal;font-variant-caps:normal;font-variant-numeric:normal;font-variant-east-asian:normal;white-space:pre" d="M30.563-30.772l-1.76.28.482 2.974-1.19.19.237 1.463 1.19-.19.895 5.502c.204 1.254.63 2.121 1.277 2.601.649.48 1.507.635 2.575.466a7.494 7.494 0 001.027-.25 9.773 9.773 0 001.053-.384l-.255-1.566-.094.016a7.035 7.035 0 01-.64.318 3.67 3.67 0 01-.88.265c-.494.078-.871.081-1.133.009a1.316 1.316 0 01-.651-.458 2.09 2.09 0 01-.4-.81c-.075-.305-.158-.73-.246-1.273l-.766-4.715 3.637-.577-.238-1.463-3.636.577zm23.482.206l-5.404 13.585 1.66.645 2.897-7.281a7.876 7.876 0 011.76-.295c.583-.029 1.1.045 1.554.222.441.171.777.373 1.006.602.23.224.37.486.42.788.053.276.027.623-.077 1.04-.102.41-.243.84-.421 1.287l-2.21 5.553 1.66.645 2.519-6.329c.475-1.193.559-2.216.252-3.068-.307-.851-.995-1.485-2.06-1.9a4.583 4.583 0 00-1.847-.303 7.327 7.327 0 00-2.004.369l1.955-4.916zm-10.822 2.08c-1.305.01-2.408.408-3.307 1.197-1.021.902-1.598 2.207-1.73 3.916-.07.917-.005 1.728.195 2.433.2.705.512 1.299.938 1.782.42.484.94.862 1.56 1.134.62.266 1.312.428 2.076.486a5.984 5.984 0 001.71-.107c.549-.116 1.132-.29 1.746-.527l.149-1.936-.095-.008c-.14.096-.33.21-.57.343a8.89 8.89 0 01-.76.357 4.865 4.865 0 01-1.031.289c-.38.065-.749.085-1.108.058-1.035-.078-1.813-.475-2.335-1.192-.516-.723-.726-1.713-.629-2.973.1-1.297.465-2.258 1.097-2.882.639-.629 1.463-.906 2.473-.83a4.618 4.618 0 011.659.464c.563.268 1.1.631 1.61 1.09l.094.007.152-1.955a9.358 9.358 0 00-1.562-.738 6.366 6.366 0 00-1.76-.386 7.014 7.014 0 00-.572-.022zm-21.615 3.358a4.206 4.206 0 00-.812.085c-.555.105-1.174.306-1.857.603a11.44 11.44 0 00-1.713.93 17.58 17.58 0 00-1.254.883l.73 1.64.086-.037c.468-.456.94-.853 1.42-1.19a7.377 7.377 0 011.356-.796 7.914 7.914 0 011.047-.374c.345-.095.664-.127.954-.096.304.032.573.14.807.325.24.183.443.458.606.824l.11.25c-.93.458-1.787.913-2.574 1.365-.788.452-1.42.934-1.896 1.448-.47.512-.765 1.064-.882 1.655-.114.582-.01 1.237.314 1.964.395.887 1.024 1.485 1.887 1.793.863.308 1.732.274 2.606-.107a5.402 5.402 0 001.975-1.413c.186-.204.361-.444.528-.722.17-.285.306-.508.408-.668l.455 1.022 1.625-.706-2.897-6.51c-.275-.62-.6-1.095-.978-1.43a2.815 2.815 0 00-1.29-.659 3.46 3.46 0 00-.761-.08zm2.062 4.351l1.189 2.67c-.268.486-.59.945-.966 1.374a4.034 4.034 0 01-1.427 1.01c-.69.3-1.264.384-1.722.256-.46-.135-.813-.476-1.058-1.026-.216-.487-.242-.93-.074-1.33.164-.407.453-.778.863-1.113.346-.28.842-.596 1.488-.945a72.75 72.75 0 011.707-.896zm-13.51 1.062l-1.277 1.246 4.456 7.054-7.7-3.892-1.046 1.02 3.88 7.617-7.15-4.426L0-9.806l9.432 5.524 1.169-1.14-3.814-7.628 7.678 3.858 1.177-1.146zm62.41 4.34l-5.353 9.977 1.157 1.356 10.87-3.517-1.206-1.413-8.55 2.92 4.333-7.86zM84.65-5.137l-1.645.84.922 1.767 1.646-.838zm-3.17 1.745l-9.422 4.806.82 1.567 9.42-4.806zm-.246 7.318c-.582 0-1.2.079-1.853.241-1.676.416-2.897 1.096-3.662 2.04-.763.951-.99 2.032-.682 3.245.159.625.425 1.176.8 1.65.375.475.84.903 1.395 1.288l-1.078.267.435 1.711 14.324-3.554-.434-1.711-4.456 1.106c.124-.514.19-.991.195-1.431a5.4 5.4 0 00-.186-1.464 4.32 4.32 0 00-.803-1.62 4.374 4.374 0 00-1.433-1.171c-.585-.3-1.25-.49-1.995-.57a5.83 5.83 0 00-.567-.027zm.33 1.789a3.56 3.56 0 011.377.297c.811.367 1.338 1.029 1.581 1.987.11.431.171.838.184 1.221.012.384-.028.832-.12 1.345l-5.9 1.465a6.629 6.629 0 01-1.2-1.183 3.828 3.828 0 01-.697-1.393c-.23-.91-.083-1.65.444-2.22.534-.57 1.412-1.007 2.633-1.31a6.37 6.37 0 011.699-.21zm-.056 11.754c-1.45.011-2.621.416-3.513 1.212-1.013.91-1.58 2.233-1.697 3.968a7.303 7.303 0 00.123 1.964c.129.63.3 1.248.512 1.858l1.941.13.008-.095c-.257-.324-.507-.858-.748-1.601a5.797 5.797 0 01-.28-2.172 4.616 4.616 0 01.327-1.463c.182-.433.435-.802.76-1.107a3.217 3.217 0 011.238-.717c.5-.161 1.073-.22 1.723-.177l-.522 7.704.966.064c1.534.102 2.744-.203 3.63-.916.885-.706 1.375-1.764 1.47-3.174.104-1.523-.32-2.786-1.274-3.79-.953-.997-2.294-1.553-4.024-1.668a8.707 8.707 0 00-.64-.02zm1.758 1.891c.829.13 1.505.491 2.029 1.084.524.599.754 1.37.69 2.312-.064.936-.366 1.614-.909 2.036-.542.428-1.28.614-2.216.559zm-5.31 10.61a4.855 4.855 0 00-1.486.272c-1.256.449-2.161 1.362-2.715 2.74-.549 1.366-.522 2.638.08 3.817.602 1.178 1.705 2.083 3.31 2.713 1.605.63 3.037.722 4.293.273 1.262-.446 2.168-1.353 2.717-2.72.553-1.377.527-2.655-.081-3.836-.605-1.173-1.71-2.076-3.315-2.706-1.003-.394-1.938-.578-2.804-.553zm-.321 1.766c.704-.045 1.519.114 2.445.478 1.276.501 2.124 1.117 2.545 1.848.425.739.459 1.553.101 2.442-.353.878-.94 1.442-1.763 1.691-.816.252-1.861.127-3.137-.374-1.247-.49-2.088-1.11-2.522-1.859-.43-.741-.47-1.548-.12-2.42.355-.884.95-1.447 1.784-1.691.21-.06.432-.1.667-.115z" font-weight="400" font-size="18.754" font-family="sans-serif"/></svg>