<svg width="52" height="37" viewBox="0 0 51.566 36.899" xmlns="http://www.w3.org/2000/svg"><g style="line-height:1.25;-inkscape-font-specification:'Segoe Script, Bold'"><path d="M4.554 4.964l2.208 4.755-.912.597L4.035 8.91l-.414-.36.163.56.57 2.185-.887.58L0 7.941l.735-.48 2.292 2.711.508.607-.19-.697L2.7 7.719l.54-.353 1.938 1.48.57.449-.333-.653L3.81 5.45zm6.912 2.77l-.264-.646q-.25.54-.596.869-.342.326-.792.495-.416.156-.751.16-.335.004-.598-.108-.26-.118-.445-.335-.182-.22-.292-.515-.273-.73.115-1.345.39-.62 1.456-1.019l1.006-.377-.16-.426q-.16-.43-.532-.584-.374-.158-.94.054-.411.154-.779.396-.362.24-.725.57l-.284-.76q.138-.118.312-.244.176-.132.378-.257.201-.125.43-.238.226-.118.468-.208.44-.165.83-.2.39-.036.705.072.321.106.564.357.243.251.396.658l1.253 3.349zm-.92-2.177l-1.07.4q-.314.118-.518.266-.204.148-.306.319-.101.17-.112.362-.008.185.068.388.052.14.145.255.09.11.225.175.133.06.31.06.176 0 .399-.083.29-.108.598-.422.31-.32.584-.858zm7.447.836q-.291.119-.61.194-.317.08-.65.126-.967.133-1.503-.236-.537-.375-.662-1.281l-.37-2.683-1.438.199-.103-.748 1.438-.198-.194-1.413L14.76 0l.226 1.643 2.309-.318.103.747-2.309.319.36 2.61q.076.553.406.79.334.23.908.151.245-.034.532-.11.286-.081.593-.207zm5.694.171q-.361.105-.737.136-.371.037-.763.004-1.225-.101-1.835-.82-.604-.72-.499-1.996.051-.613.283-1.097.232-.484.606-.81.375-.327.87-.478.494-.157 1.071-.109.402.033.747.119.346.085.655.24l-.071.855q-.32-.202-.664-.308-.338-.111-.71-.142-.344-.029-.664.08-.315.103-.567.332-.252.228-.415.572-.164.344-.2.792-.078.938.336 1.444.42.501 1.229.568.366.03.712-.024.352-.054.685-.193zm5.737 1.758l-.859-.267.984-3.163q.179-.572.049-.921-.123-.352-.523-.477-.172-.054-.34-.052-.163-.002-.362.066-.198.063-.452.2-.254.138-.598.356L26.3 7.35l-.858-.267L27.612.11l.858.267-.628 2.018-.272.77q.277-.178.52-.281.25-.107.475-.15.23-.043.445-.024.217.018.434.086.74.23 1.003.81.265.575-.017 1.483zm9.631-.415l.753.692-1.388 3.386-.365.802.79-.44 3.237-1.655.727.668-5.012 2.44-.76-.7zm5.662 7.133l-.877-1.26.61-.425 1.398 2.006-3.642 2.537.883 1.268-.615.429-2.378-3.414.615-.428.975 1.4zm2.576-1.41q.085.122.113.26.031.136.004.269-.025.136-.101.253-.07.117-.192.203-.119.083-.257.11-.136.031-.273.007-.133-.02-.254-.094-.116-.076-.202-.2-.086-.122-.117-.258-.027-.138-.003-.275.028-.132.101-.253.077-.116.195-.199.123-.086.254-.114.139-.027.273-.007.136.024.253.1.12.074.206.197zm-1.851 6.197q.612-.25 1.154-.276.547-.028.997.145.457.176.8.538.35.365.568.896.094.23.155.461.063.237.089.478l2.018-.825.343.837-6.76 2.762-.305-.746.898-.4q-.65-.142-1.06-.45-.41-.306-.604-.78-.168-.411-.125-.797.045-.382.27-.72.232-.334.629-.619t.933-.504zm.4.83q-.87.356-1.197.785-.32.432-.129.901.13.316.554.55.427.239 1.14.4l2.23-.912q.011-.244-.043-.513-.049-.27-.149-.514-.277-.68-.874-.882-.594-.198-1.532.185zm2.985 9.659q-.189.032-.317.048-.128.017-.242.025l-.604-3.592q-.785.132-1.135.641-.344.509-.205 1.334.038.225.09.446.059.221.125.425.065.204.133.386.073.187.146.342l-.728.123q-.163-.345-.301-.793-.143-.443-.225-.932-.11-.657-.012-1.161.099-.504.383-.866.291-.359.756-.589.47-.225 1.092-.33.54-.09 1.045-.019.51.077.922.312.417.239.704.636t.38.947q.09.535-.009.977-.099.44-.362.773-.258.337-.678.554-.413.222-.958.313zm-.028-.943q.344-.043.61-.171.272-.13.447-.337.175-.203.245-.476.074-.275.017-.611-.048-.29-.2-.511-.153-.221-.386-.36-.233-.139-.537-.198-.303-.059-.649-.027zm-.35 7.519q-.604-.032-1.1-.229-.492-.197-.836-.536-.34-.338-.516-.808-.172-.47-.141-1.053.03-.558.223-.992.199-.43.55-.721.352-.287.856-.426.504-.134 1.15-.1.603.032 1.09.229.49.197.83.536.344.339.516.808.177.47.146 1.053-.03.558-.228.987-.194.435-.546.722-.346.292-.85.425-.504.14-1.144.105zm.007-.92q.48.025.842-.064.367-.085.614-.268.253-.183.387-.46.139-.273.157-.619.021-.402-.123-.7-.14-.292-.393-.491-.254-.195-.6-.301-.342-.101-.723-.121-.48-.026-.847.058-.367.09-.62.273-.248.183-.386.455-.134.273-.152.624-.022.402.118.694.145.298.398.492.254.2.595.3.346.107.733.128z" style="-inkscape-font-specification:'Consolas, Normal'" aria-label="watch video" font-weight="400" font-size="10.583" font-family="Consolas"/></g></svg>