<svg width="1920" height="534" fill="none" xmlns="http://www.w3.org/2000/svg"><path fill-rule="evenodd" clip-rule="evenodd" d="M1365.17 394.533c-21.9-5.285-41.7-15.965-57.91-30.557-23.57 37.984-65.64 63.279-113.63 63.279-31.37 0-60.21-10.805-83-28.897-24.52 29.347-61.38 48.018-102.61 48.018-52.868 0-98.564-30.699-120.234-75.243-13.539 4.617-28.056 7.122-43.158 7.122-29.489 0-56.747-9.551-78.848-25.73-15.486 6.275-32.416 9.73-50.152 9.73-23.068 0-44.771-5.845-63.709-16.135-19 50.651-67.868 86.7-125.155 86.7-29.979 0-57.653-9.873-79.947-26.544-18.391 9.536-39.28 14.924-61.427 14.924-24.977 0-48.354-6.853-68.353-18.781C297.504 469.768 235.356 519 161.709 519c-17.691 0-34.718-2.841-50.651-8.091-24.12 14.3-52.276 22.509-82.35 22.509-89.308 0-161.708-72.4-161.708-161.709S-60.6 210 28.709 210c17.69 0 34.718 2.841 50.651 8.091 24.12-14.3 52.276-22.509 82.349-22.509 17.804 0 34.937 2.878 50.957 8.193 10.717-22.59 33.734-38.211 60.399-38.211 13.827 0 26.672 4.2 37.33 11.393 21.383-14.525 47.198-23.012 74.995-23.012 29.98 0 57.654 9.872 79.948 26.544 18.391-9.537 39.279-14.925 61.426-14.925a134.03 134.03 0 0129.78 3.331C561.991 154.91 575.588 145 591.5 145a37.341 37.341 0 0116.823 3.976C632.677 116.221 671.674 95 715.628 95c29.488 0 56.746 9.552 78.847 25.73 15.486-6.274 32.416-9.73 50.153-9.73 6.425 0 12.744.453 18.926 1.33 7.181-17.08 24.069-29.073 43.759-29.073a47.247 47.247 0 0121.233 5.005c10.164-6.245 22.126-9.846 34.929-9.846 36.795 0 66.645 29.742 66.815 66.496a47.35 47.35 0 0115.49-2.587c26.21 0 47.45 21.243 47.45 47.447v.025a32.362 32.362 0 0111.14-1.961c2.3 0 4.55.24 6.72.697 22.72-17.872 51.38-28.533 82.54-28.533 25.84 0 49.96 7.333 70.41 20.032 3-.598 6.11-.911 9.3-.911 6.3 0 12.31 1.227 17.81 3.457C1315.6 151.189 1353.76 131 1396.63 131c9.6 0 18.97 1.014 28 2.94 9.53-16.825 26.14-29.108 45.79-32.793-.34-1.877-.51-3.81-.51-5.786 0-16.46 12.26-30.058 28.14-32.157C1508.04 26.77 1541.4 0 1581 0c31.4 0 58.88 16.834 73.89 41.97a66.936 66.936 0 0117.39-2.287c14.43 0 27.8 4.576 38.72 12.356 25.5-18.725 56.98-29.786 91.04-29.786 14.75 0 29.02 2.075 42.52 5.949 10.57-7.008 23.25-11.09 36.88-11.09 36.9 0 66.81 29.915 66.81 66.815 0 10.06-2.22 19.6-6.2 28.157 8.96 19.524 13.95 41.245 13.95 64.132 0 34.519-11.36 66.386-30.55 92.064 17.43 24.95 27.64 55.303 27.64 88.043 0 85.031-68.93 153.962-153.96 153.962-67.51 0-124.87-43.451-145.64-103.912-23.33 55.364-78.1 94.229-141.95 94.229-68.31 0-126.23-44.487-146.37-106.069z" fill="#fff"/></svg>