<svg width="1920" height="963.079" fill="none" xmlns="http://www.w3.org/2000/svg"><g opacity=".2" filter="url(#filter0_d)" transform="translate(0 -41.863)"><path d="M692.201 129.932L455.858 97.266C301.388 75.916 144.339 97.355 0 159.495v845.446l280.738-60.538c108.27-23.347 219.439-27.503 328.99-12.297L783.39 956.21c118.078 16.389 237.97 10.276 354.02-18.05l123.18-30.067c126.76-30.938 257.99-35.352 386.34-12.993L1920 942.67V137.94l-111.06-39.93c-163.95-58.95-339.53-71.745-509.55-37.132l-289.47 58.932c-104.717 21.32-211.98 24.737-317.719 10.122z" fill="#525a67"/></g><defs id="defs21"><filter id="filter0_d" x="-41" y=".862" width="2002" height="990.014" filterUnits="userSpaceOnUse" color-interpolation-filters="sRGB"><feFlood flood-opacity="0" result="BackgroundImageFix" id="feFlood6"/><feColorMatrix in="SourceAlpha" type="matrix" values="0 0 0 0 0 0 0 0 0 0 0 0 0 0 0 0 0 0 127 0" result="hardAlpha" id="feColorMatrix8"/><feOffset id="feOffset10"/><feGaussianBlur stdDeviation="20.5" id="feGaussianBlur12"/><feColorMatrix type="matrix" values="0 0 0 0 0 0 0 0 0 0 0 0 0 0 0 0 0 0 0.3 0" id="feColorMatrix14"/><feBlend mode="normal" in2="BackgroundImageFix" result="effect1_dropShadow" id="feBlend16"/><feBlend mode="normal" in="SourceGraphic" in2="effect1_dropShadow" result="shape" id="feBlend18"/></filter></defs></svg>